<svg width="40" height="40" viewBox="0 0 40 40" fill="none" xmlns="http://www.w3.org/2000/svg">
<circle cx="20" cy="20" r="20" fill="#7134F4"/>
<path d="M16.176 19.448C14.5679 19.448 13.2588 18.1389 13.2588 16.5308C13.2588 14.9226 14.5679 13.6152 16.176 13.6152C17.7842 13.6152 19.0933 14.9243 19.0933 16.5325C19.0933 18.1406 17.7842 19.448 16.176 19.448ZM16.176 15.073C15.3711 15.073 14.7183 15.7275 14.7183 16.5308C14.7183 17.334 15.3728 17.9885 16.176 17.9885C16.9792 17.9885 17.6338 17.334 17.6338 16.5308C17.6338 15.7275 16.9792 15.073 16.176 15.073ZM23.4666 26.7402C21.8584 26.7402 20.5493 25.4329 20.5493 23.823C20.5493 22.2131 21.8567 20.9058 23.4666 20.9058C25.0764 20.9058 26.3838 22.2148 26.3838 23.823C26.3838 25.4312 25.0764 26.7402 23.4666 26.7402ZM23.4666 22.3652C22.6633 22.3652 22.0088 23.0198 22.0088 23.823C22.0088 24.6262 22.6633 25.2808 23.4666 25.2808C24.2698 25.2808 24.9243 24.6262 24.9243 23.823C24.926 23.0198 24.2715 22.3652 23.4666 22.3652ZM19.8213 26.0105C16.605 26.0105 13.9885 23.394 13.9885 20.1777C13.9885 19.7744 14.3149 19.448 14.7183 19.448C15.1216 19.448 15.4463 19.7744 15.4463 20.1777C15.4463 22.5908 17.4082 24.5527 19.8213 24.5527C20.2246 24.5527 20.551 24.8792 20.551 25.2825C20.551 25.6858 20.2246 26.0105 19.8213 26.0105ZM24.926 20.9075C24.5227 20.9075 24.1963 20.5811 24.1963 20.1777C24.1963 17.7646 22.2344 15.8027 19.8213 15.8027C19.418 15.8027 19.0916 15.4763 19.0916 15.073C19.0916 14.6697 19.418 14.3433 19.8213 14.3433C23.0376 14.3433 25.6541 16.9597 25.6541 20.176C25.6541 20.5811 25.3276 20.9075 24.926 20.9075Z" fill="white"/>
</svg>
