<svg width="40" height="40" viewBox="0 0 40 40" fill="none" xmlns="http://www.w3.org/2000/svg">
<circle cx="20" cy="20" r="20" fill="#F59004"/>
<g clip-path="url(#clip0_524_94413)">
<path d="M20.6184 25.3586C20.6524 25.2954 20.6988 25.2398 20.7547 25.1949C20.8107 25.15 20.8751 25.1168 20.9441 25.0972C21.0131 25.0777 21.0853 25.0722 21.1565 25.0811C21.2277 25.09 21.2964 25.1131 21.3584 25.1491C21.4205 25.185 21.4747 25.2331 21.5179 25.2904C21.5611 25.3476 21.5923 25.413 21.6097 25.4826C21.6271 25.5522 21.6304 25.6246 21.6193 25.6955C21.6082 25.7663 21.583 25.8343 21.5452 25.8952C21.3882 26.1658 21.1629 26.3904 20.8918 26.5466C20.6207 26.7027 20.3134 26.7849 20.0005 26.7849C19.6877 26.7849 19.3803 26.7027 19.1093 26.5466C18.8382 26.3904 18.6129 26.1658 18.4559 25.8952C18.4171 25.8342 18.3911 25.766 18.3794 25.6947C18.3676 25.6235 18.3705 25.5505 18.3876 25.4804C18.4048 25.4102 18.436 25.3442 18.4794 25.2864C18.5227 25.2286 18.5773 25.1802 18.6399 25.144C18.7024 25.1078 18.7717 25.0847 18.8434 25.076C18.9151 25.0673 18.9879 25.0732 19.0572 25.0933C19.1266 25.1134 19.1912 25.1474 19.2472 25.1931C19.3031 25.2389 19.3492 25.2955 19.3827 25.3595C19.4455 25.4677 19.5356 25.5576 19.644 25.62C19.7525 25.6825 19.8754 25.7154 20.0005 25.7154C20.1257 25.7154 20.2486 25.6825 20.357 25.62C20.4655 25.5576 20.5556 25.4677 20.6184 25.3595V25.3586ZM19.9996 13.2148C21.1425 13.2148 22.238 13.6988 23.0425 14.5559C23.8465 15.4252 24.2907 16.5673 24.2853 17.7515C24.2853 19.7113 24.6184 21.1898 25.1648 22.2577C25.4755 22.8666 25.7693 23.197 25.9353 23.3148C26.3612 23.6184 26.147 24.2881 25.6255 24.2881H14.3746C13.8532 24.2881 13.6389 23.6184 14.0639 23.3148C14.23 23.197 14.5237 22.8666 14.8353 22.2577C15.3818 21.1898 15.7139 19.7113 15.7139 17.7515C15.7139 16.555 16.1603 15.4068 16.9577 14.5559C17.7612 13.6988 18.8559 13.2148 19.9996 13.2148ZM19.9996 14.2863C19.1541 14.2863 18.3416 14.6452 17.738 15.289C17.1204 15.9597 16.78 16.8397 16.7853 17.7515C16.7853 19.8756 16.4148 21.522 15.7889 22.7461C15.7271 22.8671 15.6616 22.9862 15.5925 23.1032L15.5228 23.2157H24.4773L24.4086 23.1041C24.3749 23.0469 24.3422 22.9892 24.3103 22.9309L24.2121 22.7461C23.5845 21.522 23.2139 19.8756 23.2139 17.7506C23.2139 16.8247 22.8702 15.9381 22.2612 15.2881C21.6586 14.6461 20.8443 14.2863 19.9996 14.2863Z" fill="white" stroke="white" stroke-width="0.4"/>
</g>
<defs>
<clipPath id="clip0_524_94413">
<rect width="14.2857" height="14.2857" fill="white" transform="translate(12.8569 12.8574)"/>
</clipPath>
</defs>
</svg>
