<svg width="40" height="40" viewBox="0 0 40 40" fill="none" xmlns="http://www.w3.org/2000/svg">
<circle cx="20" cy="20" r="20" fill="#0361FF"/>
<path d="M17.825 21.9208C15.6385 21.9208 13.8596 20.1064 13.8596 17.8763C13.8596 15.6462 15.6374 13.832 17.825 13.832C20.0125 13.832 21.7903 15.6462 21.7903 17.8763C21.7903 20.1064 20.0105 21.9208 17.825 21.9208ZM17.825 15.1447C16.3481 15.1447 15.1466 16.37 15.1466 17.8763C15.1466 19.3826 16.3471 20.6081 17.825 20.6081C19.3028 20.6081 20.5033 19.3826 20.5033 17.8763C20.5033 16.37 19.3008 15.1447 17.825 15.1447ZM21.8702 29H13.7777C12.2462 29 11 27.7283 11 26.1671C11 24.6058 12.2468 23.3339 13.7777 23.3339H21.8702C23.4017 23.3339 24.6479 24.6056 24.6479 26.1671C24.6479 27.7285 23.4017 29 21.8702 29ZM13.7777 24.6466C13.5805 24.6443 13.3848 24.6819 13.202 24.7572C13.0191 24.8326 12.8527 24.9442 12.7125 25.0856C12.5722 25.227 12.4608 25.3954 12.3848 25.581C12.3088 25.7667 12.2697 25.9658 12.2697 26.167C12.2697 26.3681 12.3088 26.5673 12.3848 26.7529C12.4608 26.9385 12.5722 27.1069 12.7125 27.2483C12.8527 27.3897 13.0191 27.5013 13.202 27.5767C13.3848 27.6521 13.5805 27.6897 13.7777 27.6873H21.8702C22.0674 27.6897 22.2631 27.6521 22.4459 27.5767C22.6288 27.5013 22.7952 27.3897 22.9354 27.2483C23.0757 27.1069 23.1871 26.9385 23.2631 26.7529C23.3391 26.5673 23.3782 26.3681 23.3782 26.167C23.3782 25.9658 23.3391 25.7667 23.2631 25.581C23.1871 25.3954 23.0757 25.227 22.9354 25.0856C22.7952 24.9442 22.6288 24.8326 22.4459 24.7572C22.2631 24.6819 22.0674 24.6443 21.8702 24.6466H13.7777ZM23.565 19.0524C23.5012 18.9159 23.4858 18.7612 23.5214 18.6145C23.557 18.4677 23.6413 18.3381 23.7601 18.2477C24.0983 17.9931 24.3735 17.6613 24.5635 17.2789C24.7536 16.8964 24.8533 16.4739 24.8546 16.0451C24.8546 14.5388 23.6531 13.3133 22.1762 13.3133C21.8976 13.3134 21.6207 13.3575 21.3554 13.4442C21.214 13.4899 21.0614 13.4843 20.9236 13.4282C20.7859 13.3721 20.6714 13.269 20.5999 13.1365C20.5537 13.0519 20.5264 12.958 20.5201 12.8614C20.5137 12.7648 20.5283 12.668 20.5629 12.5779C20.5975 12.4877 20.6513 12.4065 20.7203 12.34C20.7893 12.2736 20.8718 12.2235 20.962 12.1934C21.3542 12.0653 21.7635 12.0001 22.1752 12C24.3617 12 26.1406 13.8144 26.1406 16.0445C26.1408 16.6774 25.9953 17.3015 25.7159 17.8667C25.4365 18.4318 25.0309 18.9222 24.5319 19.2983C24.4554 19.3565 24.3673 19.3966 24.2738 19.4158C24.1803 19.4349 24.0838 19.4327 23.9913 19.4091C23.8987 19.3856 23.8125 19.3414 23.7388 19.2797C23.6651 19.218 23.6057 19.1403 23.565 19.0524ZM26.2223 26.4105C26.2226 26.2708 26.2664 26.1349 26.3474 26.0223C26.4285 25.9097 26.5425 25.8263 26.6731 25.7841C26.9701 25.6874 27.2299 25.4982 27.4162 25.2433C27.6025 24.9883 27.706 24.6803 27.712 24.3623C27.7267 23.5087 27.0379 22.8146 26.201 22.8146H24.9113C24.7407 22.8146 24.577 22.7455 24.4563 22.6224C24.3356 22.4993 24.2678 22.3324 24.2678 22.1583C24.2678 21.9842 24.3356 21.8173 24.4563 21.6942C24.577 21.5711 24.7407 21.5019 24.9113 21.5019H26.1945C27.7303 21.5019 28.9962 22.7615 29 24.3281C29.003 25.5952 28.186 26.6723 27.0606 27.0355C26.9642 27.0667 26.862 27.0744 26.7621 27.0577C26.6623 27.0411 26.5677 27.0007 26.4861 26.9399C26.4044 26.879 26.338 26.7993 26.2921 26.7074C26.2463 26.6154 26.2224 26.5137 26.2223 26.4105Z" fill="white" stroke="white" stroke-width="0.3"/>
</svg>
