<svg width="500" height="500" viewBox="0 0 500 500" fill="none" xmlns="http://www.w3.org/2000/svg">
<rect width="500" height="500" rx="100" fill="white"/>
<path d="M326.548 220.803C316.082 195.339 290.985 177.403 261.688 177.403C222.989 177.403 191.617 208.697 191.617 247.3C191.617 285.903 222.989 317.196 261.688 317.196C290.985 317.196 316.082 299.261 326.548 273.797" stroke="#9041F1" stroke-width="48.6237"/>
<rect x="81" y="233.32" width="93.6006" height="35.2522" fill="#9041F1"/>
<path d="M139.957 303.825C158.437 344.999 197.367 375.201 244.054 381.583C243.947 381.983 243.891 382.405 243.891 382.839V402.288C243.891 404.973 246.068 407.15 248.753 407.15H274.28C276.965 407.15 279.142 404.973 279.143 402.288V382.839C279.143 382.497 279.106 382.163 279.039 381.841C320.582 376.789 356.23 352.902 377.092 319.033L418.492 344.533C386.382 396.664 328.529 431.462 262.544 431.462C180.655 431.462 111.185 377.846 88.0137 303.825H139.957ZM262.544 68C328.529 68 386.382 102.797 418.492 154.928L397.792 167.679L377.092 180.429C356.23 146.56 320.582 122.671 279.04 117.619C279.107 117.298 279.143 116.965 279.143 116.624V97.1738C279.142 94.4887 276.965 92.3117 274.28 92.3115H248.753C246.068 92.3115 243.891 94.4886 243.891 97.1738V116.624C243.891 117.058 243.947 117.478 244.054 117.878C196.452 124.385 156.912 155.654 138.893 198.068H87.2734C109.672 122.793 179.761 68.0003 262.544 68Z" fill="#9041F1"/>
</svg>
