<svg width="40" height="40" viewBox="0 0 40 40" fill="none" xmlns="http://www.w3.org/2000/svg">
<path d="M24.9658 15.6035L24.8604 15.6328L24.8564 15.6338C21.5948 16.6711 18.3311 17.7099 15.0674 18.7461C15.0265 18.7589 14.9793 18.7802 14.9473 18.8252C14.9161 18.8693 14.9116 18.9196 14.9121 18.9619V18.9629C14.9153 19.6464 14.9166 20.3299 14.9102 21.0127L14.9199 21.1025C14.9272 21.1319 14.94 21.16 14.96 21.1855C14.9987 21.2351 15.0537 21.2594 15.1045 21.2754C18.0528 22.211 21.0009 23.1481 23.9482 24.0869H23.9492L24.9619 24.4072L25.0889 24.4473V24.3145L25.0898 15.6973V15.5684L24.9658 15.6035ZM13.5186 18.4082C13.4408 18.4056 13.3629 18.4188 13.29 18.4463C13.2172 18.4739 13.1504 18.5158 13.0938 18.5693C13.0372 18.6228 12.9915 18.6867 12.96 18.7578C12.9283 18.8291 12.9108 18.9064 12.9092 18.9844V18.9854C12.9038 19.6662 12.9038 20.3465 12.9092 21.0273V21.0303C12.9139 21.1852 12.9802 21.3319 13.0928 21.4385C13.2049 21.5444 13.3546 21.6009 13.5088 21.5977V21.5986L13.5098 21.5977L13.5117 21.5986L13.5107 21.5977C13.588 21.5976 13.665 21.5834 13.7363 21.5537C13.808 21.5238 13.8731 21.48 13.9277 21.4248C13.9825 21.3695 14.0256 21.3036 14.0547 21.2314C14.0692 21.1954 14.0798 21.1581 14.0869 21.1201L14.0977 21.0039V19.0068C14.0992 18.9301 14.0855 18.8538 14.0576 18.7822C14.0294 18.7098 13.9866 18.6428 13.9326 18.5869C13.8788 18.5312 13.8143 18.4868 13.7432 18.4561C13.6723 18.4255 13.5957 18.4093 13.5186 18.4082ZM16.1045 24.0254C16.1014 23.8104 16.2316 23.6503 16.4131 23.6113L16.4941 23.6025C16.7233 23.5974 16.9 23.7677 16.9072 24.0176C16.9284 24.7718 17.2545 25.3705 17.8906 25.7764C19.2073 26.6163 20.9667 25.7337 21.0928 24.1787C21.0983 24.118 21.0847 24.0592 21.0352 24.0176C21.0146 24.0004 20.9926 23.9905 20.9766 23.9844L20.9346 23.9707V23.9697L18.4697 23.1855C17.2176 22.7881 15.9639 22.3907 14.7129 21.9912L14.6475 21.9756C14.6245 21.9723 14.6003 21.9719 14.5752 21.9756C14.5489 21.9795 14.5247 21.9883 14.502 22L14.4385 22.0439C14.2093 22.2394 13.9691 22.3569 13.7217 22.3975C13.4745 22.4379 13.2132 22.4021 12.9395 22.2812C12.405 22.0436 12.1206 21.6158 12.1084 21.0254C12.0945 20.3463 12.0945 19.6664 12.1084 18.9873C12.114 18.6888 12.1879 18.4341 12.3252 18.2256C12.4624 18.0172 12.666 17.8491 12.9375 17.7285C13.2103 17.6076 13.4721 17.5717 13.7197 17.6113C13.9673 17.6511 14.208 17.7672 14.4375 17.9609C14.4757 17.9938 14.5175 18.02 14.5684 18.0303C14.619 18.0404 14.6667 18.0332 14.7109 18.0195L14.7119 18.0186C18.2403 16.8927 21.7723 15.7694 25.2998 14.6436H25.3008C25.3367 14.6317 25.371 14.6159 25.4033 14.5967L25.4932 14.5293C25.7169 14.3173 25.9548 14.1825 26.2041 14.127C26.4529 14.0715 26.7196 14.0934 27.0039 14.2031C27.2891 14.3135 27.5017 14.4767 27.6484 14.6846C27.7586 14.8407 27.8344 15.0251 27.874 15.2373L27.9014 15.459C27.9032 15.489 27.9023 15.5175 27.9023 15.5566V24.4502C27.9022 25.1274 27.5188 25.6638 26.9072 25.8418C26.3852 25.9931 25.9213 25.8743 25.5156 25.502C25.4434 25.4363 25.3585 25.3852 25.2666 25.3525L25.2637 25.3516L22.1201 24.3486H22.1211C22.0857 24.3368 22.0492 24.3275 22.0186 24.3193L21.9248 24.2939L21.8994 24.3877C21.8389 24.6121 21.7962 24.8124 21.7256 25.0068C21.508 25.598 21.1032 26.1018 20.5732 26.4424C20.1094 26.7404 19.5715 26.8994 19.0234 26.9023L18.7881 26.8936C18.0624 26.8398 17.3829 26.5157 16.8857 25.9844C16.3887 25.4531 16.1098 24.7539 16.1045 24.0264V24.0254ZM27.0986 15.502C27.097 15.4237 27.0803 15.3461 27.0488 15.2744C27.0174 15.2028 26.9715 15.1382 26.915 15.084C26.8587 15.0299 26.7924 14.9874 26.7197 14.959C26.6468 14.9305 26.5685 14.9164 26.4902 14.918C26.412 14.9196 26.3344 14.9364 26.2627 14.9678C26.1911 14.9992 26.1264 15.0452 26.0723 15.1016C26.0182 15.1579 25.9757 15.2242 25.9473 15.2969C25.933 15.3335 25.9219 15.3716 25.915 15.4102L25.9062 15.5244V24.5488C25.9182 24.692 25.9815 24.8261 26.084 24.9268C26.1866 25.0275 26.3224 25.0884 26.4658 25.0977H26.4668C26.647 25.1064 26.8073 25.0458 26.9219 24.9307C27.0359 24.8159 27.0986 24.6532 27.0986 24.4688V15.502Z" fill="#666666" stroke="#666666" stroke-width="0.195312"/>
</svg>
