<svg width="40" height="40" viewBox="0 0 40 40" fill="none" xmlns="http://www.w3.org/2000/svg">
<path d="M14 13L28.5 28" stroke="#666666" stroke-linecap="round" stroke-linejoin="round"/>
<path d="M16.9245 18.2565C16.315 18.4502 15.7059 18.645 15.0964 18.8385C15.028 18.8599 15.0074 18.889 15.0085 18.9616C15.0117 19.6451 15.0139 20.3288 15.0075 21.0124C15.0075 21.1159 15.0418 21.1525 15.1335 21.1813C17.4385 21.9128 19.7431 22.6461 22.0475 23.3796L23.5866 24.9186C23.0873 24.7594 22.5883 24.5993 22.0895 24.4411C22.0576 24.4304 22.0248 24.4213 21.9928 24.4128C21.9341 24.6307 21.8887 24.8409 21.8161 25.0407C21.5911 25.6516 21.1734 26.1731 20.6257 26.5251C20.0777 26.8771 19.4294 27.0403 18.7799 26.9909C18.0298 26.9353 17.328 26.5997 16.8141 26.0505C16.3003 25.5012 16.012 24.7782 16.0065 24.026C16.0025 23.7304 16.2121 23.5088 16.4919 23.5046C16.779 23.4983 16.9958 23.7155 17.0046 24.0143C17.0249 24.7374 17.3343 25.3062 17.9421 25.694C19.1963 26.4942 20.8751 25.6524 20.9948 24.1696C21.0022 24.0875 20.9563 24.0802 20.904 24.0631L18.4391 23.279C17.187 22.8816 15.9334 22.4842 14.6823 22.0846C14.6109 22.0623 14.5645 22.0635 14.5016 22.1178C14.0209 22.5281 13.4761 22.6261 12.8981 22.3708C12.329 22.1176 12.0223 21.6549 12.0094 21.027C11.9956 20.3466 11.9956 19.6655 12.0094 18.985C12.0212 18.3571 12.3248 17.8936 12.8971 17.6393C13.473 17.384 14.0178 17.4804 14.4997 17.8874C14.5615 17.9407 14.6089 17.9478 14.6813 17.9255C15.1643 17.7713 15.6475 17.6166 16.1305 17.4626L16.9245 18.2565ZM25.4255 14.4577C25.8934 14.0144 26.4384 13.8802 27.0387 14.112C27.6399 14.3448 27.9538 14.808 27.9977 15.4518C27.9999 15.486 27.9987 15.5211 27.9987 15.5563V24.4499C27.9986 25.0748 27.6885 25.5939 27.1735 25.8434L26.2712 24.9411C26.333 24.9736 26.4005 24.9951 26.4714 24.9997C26.7811 25.0146 26.9997 24.7931 26.9997 24.4684V15.5036C26.9983 15.4383 26.9848 15.3739 26.9587 15.3141C26.9324 15.2542 26.8945 15.1993 26.8473 15.154C26.8002 15.1087 26.7442 15.0733 26.6833 15.0495C26.6224 15.0257 26.5572 15.014 26.4919 15.0153C26.4264 15.0166 26.3614 15.031 26.3014 15.0573C26.2415 15.0836 26.1875 15.1215 26.1423 15.1686C26.0969 15.2158 26.0616 15.2717 26.0378 15.3327C26.014 15.3936 26.0022 15.4587 26.0036 15.5241V24.5407C26.0092 24.6072 26.029 24.6708 26.0592 24.7292L24.9909 23.6608L24.9919 15.6969L24.8854 15.7272C22.9057 16.3568 20.9248 16.9852 18.944 17.6149L18.1491 16.819C20.5228 16.0627 22.8968 15.3077 25.2692 14.5505C25.3274 14.5313 25.3809 14.4998 25.4255 14.4577ZM13.5153 18.5055C13.4502 18.5033 13.3848 18.5138 13.3239 18.5368C13.2631 18.5598 13.2071 18.5946 13.1598 18.6393C13.1126 18.684 13.0749 18.738 13.0485 18.7975C13.0222 18.8569 13.0079 18.921 13.0065 18.986C13.0012 19.6665 13.0012 20.3465 13.0065 21.027C13.0105 21.1563 13.0658 21.279 13.1598 21.3678C13.2539 21.4566 13.3792 21.5041 13.5085 21.5006C13.5734 21.5008 13.638 21.4885 13.6979 21.4635C13.7578 21.4386 13.8125 21.4022 13.8581 21.3561C13.9036 21.31 13.9393 21.2551 13.9635 21.195C13.9878 21.1349 13.9995 21.0704 13.9987 21.0055V19.0065C14.0003 18.9417 13.989 18.8774 13.9655 18.8171C13.942 18.7567 13.9069 18.7015 13.862 18.6549C13.817 18.6084 13.7632 18.5712 13.7038 18.5456C13.6443 18.52 13.58 18.5063 13.5153 18.5055Z" fill="#646464"/>
</svg>
