<svg width="35" height="35" viewBox="0 0 35 35" fill="none" xmlns="http://www.w3.org/2000/svg">
<circle cx="17.5" cy="17.5" r="17.5" fill="black"/>
<path d="M17.44 23.6115C16.768 23.6115 16.1547 23.5368 15.6 23.3875C15.0453 23.2275 14.624 23.0408 14.336 22.8275C14.112 22.6675 14 22.5128 14 22.3635C14 22.2035 14.0853 21.9955 14.256 21.7395C14.4267 21.4728 14.5653 21.3395 14.672 21.3395C14.7467 21.3395 14.8693 21.3982 15.04 21.5155C15.392 21.6968 15.7387 21.8462 16.08 21.9635C16.432 22.0808 16.8427 22.1395 17.312 22.1395C17.8667 22.1395 18.3253 21.9955 18.688 21.7075C19.0613 21.4088 19.248 20.9982 19.248 20.4755C19.248 20.1342 19.1573 19.8515 18.976 19.6275C18.7947 19.3928 18.5653 19.2062 18.288 19.0675C18.0213 18.9182 17.648 18.7422 17.168 18.5395L16.816 18.3955C16.2613 18.1715 15.808 17.9475 15.456 17.7235C15.104 17.4995 14.8053 17.1902 14.56 16.7955C14.3253 16.3902 14.208 15.8675 14.208 15.2275C14.208 14.6088 14.3627 14.0702 14.672 13.6115C14.992 13.1528 15.424 12.8008 15.968 12.5555C16.512 12.3102 17.1307 12.1875 17.824 12.1875C18.24 12.1875 18.6667 12.2408 19.104 12.3475C19.552 12.4542 19.904 12.5928 20.16 12.7635C20.384 12.9022 20.496 13.0515 20.496 13.2115C20.496 13.3608 20.416 13.5688 20.256 13.8355C20.1067 14.0915 19.9787 14.2195 19.872 14.2195C19.8187 14.2195 19.664 14.1555 19.408 14.0275C18.9173 13.7928 18.4053 13.6755 17.872 13.6755C17.2747 13.6755 16.8053 13.8142 16.464 14.0915C16.1333 14.3688 15.968 14.7422 15.968 15.2115C15.968 15.5528 16.0533 15.8302 16.224 16.0435C16.4053 16.2568 16.6187 16.4222 16.864 16.5395C17.1093 16.6568 17.4933 16.8168 18.016 17.0195C18.6453 17.2648 19.1573 17.5048 19.552 17.7395C19.9573 17.9635 20.2987 18.2942 20.576 18.7315C20.864 19.1582 21.008 19.7075 21.008 20.3795C21.008 21.4142 20.6773 22.2142 20.016 22.7795C19.3547 23.3342 18.496 23.6115 17.44 23.6115Z" fill="white"/>
<path d="M17.4722 23.5V25" stroke="white" stroke-width="1.5" stroke-linecap="round"/>
<path d="M17.4722 11V12.5" stroke="white" stroke-width="1.5" stroke-linecap="round"/>
</svg>
