<svg width="200" height="200" viewBox="0 0 200 200" fill="none" xmlns="http://www.w3.org/2000/svg">
<path d="M3 184C3 191.18 8.8203 197 16 197H40V200H16L15.5869 199.995C7.07854 199.779 0.220502 192.921 0.00488281 184.413L0 184V160H3V184ZM200 184L199.995 184.413C199.779 192.921 192.921 199.779 184.413 199.995L184 200H160V197H184C191.18 197 197 191.18 197 184V160H200V184ZM40 3H16C8.93261 3 3.18208 8.63962 3.00391 15.6641L3 16V40H0V16C0 7.30155 6.94127 0.22398 15.5869 0.00488281L16 0H40V3ZM184.413 0.00488281C193.059 0.223979 200 7.30155 200 16V40H197V16C197 8.8203 191.18 3 184 3H160V0H184L184.413 0.00488281Z" fill="#E5E5E5"/>
</svg>
