<svg width="36" height="30" viewBox="0 0 36 30" fill="none" xmlns="http://www.w3.org/2000/svg">
<path d="M2.26919 21.4836H1.958L1.93359 21.4599V19.6409L1.958 19.6172H2.26919L2.2936 19.6409V21.4599L2.26919 21.4836Z" fill="url(#paint0_linear_559_4480)"/>
<path d="M2.12845 17.9531L1.40234 20.1218L2.12845 20.5425V17.9531Z" fill="#BEA4FF"/>
<path d="M2.12891 17.9531L2.85501 20.0151L2.12891 20.4062V17.9531Z" fill="#8F76FF"/>
<path d="M1.26182 26.9717H0.810291L0.767578 26.9362L0.779782 24.252L1.26182 24.2461L1.29843 24.2816V26.9362L1.26182 26.9717Z" fill="url(#paint1_linear_559_4480)"/>
<path d="M1.0556 21.8047L0 24.9806L1.0556 25.5909V21.8047Z" fill="#BEA4FF"/>
<path d="M1.05469 21.8047L2.11639 24.8206L1.05469 25.3954V21.8047Z" fill="#8F76FF"/>
<path d="M34.7537 30.0017H34.0703L34.0398 29.9839L34.0215 29.9543V26.0318L34.0398 25.9962L34.0703 25.9844H34.7537L34.7842 25.9962L34.8025 26.0318V29.9543L34.7842 29.9839L34.7537 30.0017Z" fill="url(#paint2_linear_559_4480)"/>
<path d="M34.4427 22.3984L32.8867 27.0675L34.4427 27.9622V22.3984Z" fill="#BEA4FF"/>
<path d="M34.4434 22.3984L35.9993 26.8305L34.4434 27.6778V22.3984Z" fill="#8F76FF"/>
<path d="M31.2959 12.7335H5.05846L4.96084 12.7217L4.79609 12.6269L4.68016 12.4669L4.61914 12.2536L4.63745 12.0225L6.63881 7.0453L6.78525 6.64239L7.01102 6.2928L7.14525 6.14466L7.45644 5.88988L7.81644 5.71212L8.20695 5.61732L8.41441 5.60547H28.245L28.4647 5.62324L28.6721 5.6588L28.8735 5.72397L29.0626 5.80693L29.4104 6.04394L29.6972 6.35797L29.8193 6.53573L29.9108 6.73127L29.9901 6.93865L30.045 7.16381L31.723 12.0581L31.7291 12.2832L31.662 12.4847L31.546 12.6328L31.4667 12.6861L31.2959 12.7335Z" fill="url(#paint3_linear_559_4480)"/>
<path d="M6.63881 7.04491L4.63745 12.0221L4.61914 12.1406L4.64355 12.3599L4.68016 12.4665L4.79609 12.6265L4.87541 12.6857L4.96694 12.7213L5.05846 12.7331H8.04221V5.64062L7.82255 5.7058L7.61509 5.79468L7.41983 5.91319L7.24288 6.04947L7.07813 6.20945L6.93169 6.39313L6.80966 6.58866L6.71203 6.8079L6.63881 7.04491Z" fill="url(#paint4_linear_559_4480)" fill-opacity="0.6"/>
<path d="M31.2948 12.7335L31.4656 12.6861L31.545 12.6328L31.6609 12.4847L31.728 12.2832L31.7219 12.0581L30.0439 7.15788L29.9219 6.74312L29.7205 6.38167L29.5863 6.22169L29.2934 5.94913L28.9395 5.74767L28.7565 5.6825L28.3477 5.60547V12.7335H31.2948Z" fill="url(#paint5_linear_559_4480)" fill-opacity="0.6"/>
<path d="M21.8873 9.18408L14.3455 9.17223L14.1381 9.10113L13.9672 8.95892L13.8513 8.76932L13.8086 8.55008L13.8513 8.32492L13.9001 8.23012L14.0405 8.06421L14.2357 7.95163L14.4676 7.91016L22.0032 7.92201L22.2168 7.99903L22.3876 8.14124L22.5035 8.32492L22.5402 8.55008L22.4974 8.76932L22.3876 8.95892L22.2168 9.10113L22.113 9.14853L21.8873 9.18408Z" fill="white"/>
<path d="M21.5024 3.22926L21.4841 3.54922L21.4353 3.86326L21.356 4.16545L21.2462 4.46171L21.1058 4.74612L20.9411 5.01868L20.7519 5.26755L20.5262 5.51048L20.2821 5.72379L20.0197 5.9134L19.7451 6.07338L19.4462 6.20966L19.1411 6.31632L18.8299 6.39334L18.5065 6.44074L18.177 6.4526L17.8292 6.43482L17.4997 6.38742L17.1885 6.31039L16.8834 6.20373L16.5906 6.06153L16.316 5.90155L16.0658 5.71786L15.8278 5.51048L15.6143 5.2794L15.419 5.03054L15.2543 4.76982L15.1139 4.48541L15.0041 4.18915L14.9248 3.88104L14.8699 3.56107L14.8516 3.22926L14.8699 2.89152L14.9248 2.57156L15.0041 2.26344L15.1139 1.97311L15.2543 1.6887L15.419 1.42206L15.6143 1.1732L15.8278 0.94804L16.0658 0.73473L16.316 0.551047L16.5906 0.391067L16.8834 0.254785L17.1885 0.142206L17.4997 0.0651781L17.8292 0.017775L18.177 0L18.5065 0.017775L18.8299 0.0651781L19.1411 0.13628L19.4462 0.242936L19.7451 0.379216L20.0197 0.539198L20.2821 0.728805L20.5262 0.94804L20.7519 1.18505L20.9411 1.43983L21.1058 1.70647L21.2462 1.99088L21.356 2.28715L21.4353 2.59526L21.4841 2.90337L21.5024 3.22926Z" fill="url(#paint6_linear_559_4480)"/>
<path d="M31.5397 29.9996H4.81414L4.71651 29.9818L4.64329 29.9285L4.59448 29.8574L4.57617 29.7685V11.2936L4.59448 11.1988L4.64329 11.1277L4.71651 11.0803L4.81414 11.0625H31.5397L31.6312 11.0803L31.7044 11.1277L31.7594 11.1988L31.7777 11.2936V29.7685L31.7594 29.8574L31.7044 29.9285L31.6312 29.9818L31.5397 29.9996Z" fill="url(#paint7_linear_559_4480)"/>
<path d="M23.9137 17.9106L12.3204 17.8988L12.1068 17.8218L11.936 17.6796L11.8201 17.49L11.7773 17.2648L11.8201 17.0396L11.936 16.85L12.1068 16.7137L12.3204 16.6367H24.0357L24.2493 16.7137L24.4201 16.85L24.536 17.0396L24.5727 17.2648L24.536 17.49L24.4872 17.5907L24.3408 17.7566L24.1455 17.8692L23.9137 17.9106Z" fill="white"/>
<path d="M23.9137 25.0708L12.3204 25.059L12.1068 24.9819L11.936 24.8397L11.8201 24.6501L11.7773 24.4249L11.8201 24.1998L11.936 24.0102L12.1068 23.8739L12.3204 23.7969H24.0357L24.2493 23.8739L24.4201 24.0102L24.536 24.1998L24.5727 24.4249L24.536 24.6501L24.4201 24.8397L24.2493 24.9819L24.1455 25.0293L23.9137 25.0708Z" fill="white"/>
<path d="M17.934 21.4927L12.3204 21.4808L12.1068 21.4038L11.936 21.2616L11.8201 21.072L11.7773 20.8468L11.8201 20.6217L11.936 20.4321L12.1068 20.2958L12.3204 20.2188H18.056L18.2696 20.2958L18.4404 20.4321L18.5564 20.6217L18.5991 20.8468L18.5564 21.072L18.4404 21.2616L18.2696 21.4038L18.1658 21.4512L17.934 21.4927Z" fill="white"/>
<path d="M23.9125 21.4928H21.0142L20.7823 21.4513L20.5871 21.3388L20.4407 21.1728L20.3613 20.9655V20.7285L20.4407 20.527L20.5871 20.3552L20.7823 20.2485L21.0142 20.207H23.9125L24.1444 20.2485L24.3397 20.3552L24.4861 20.527L24.5654 20.7285V20.9655L24.4861 21.1728L24.3397 21.3388L24.1444 21.4513L23.9125 21.4928Z" fill="white"/>
<defs>
<linearGradient id="paint0_linear_559_4480" x1="84.6536" y1="1532.09" x2="79.7033" y2="1531.33" gradientUnits="userSpaceOnUse">
<stop stop-color="#9B69FF"/>
<stop offset="1" stop-color="#DEC3FF"/>
</linearGradient>
<linearGradient id="paint1_linear_559_4480" x1="81.7219" y1="2349.31" x2="71.0645" y2="2347.66" gradientUnits="userSpaceOnUse">
<stop stop-color="#A069FF"/>
<stop offset="1" stop-color="#D5C3FF"/>
</linearGradient>
<linearGradient id="paint2_linear_559_4480" x1="734.69" y1="3501.25" x2="711.578" y2="3497.68" gradientUnits="userSpaceOnUse">
<stop stop-color="#AD69FF"/>
<stop offset="1" stop-color="#DAC3FF"/>
</linearGradient>
<linearGradient id="paint3_linear_559_4480" x1="14124.2" y1="4249.27" x2="13949.2" y2="2420.58" gradientUnits="userSpaceOnUse">
<stop stop-color="#8E57F3"/>
<stop offset="1" stop-color="#9886FF"/>
</linearGradient>
<linearGradient id="paint4_linear_559_4480" x1="1021.71" y1="3813.5" x2="1021.71" y2="2693.56" gradientUnits="userSpaceOnUse">
<stop stop-color="#683FEE"/>
<stop offset="1" stop-color="#895BF4"/>
</linearGradient>
<linearGradient id="paint5_linear_559_4480" x1="2346.54" y1="3832.55" x2="2346.54" y2="2706.99" gradientUnits="userSpaceOnUse">
<stop stop-color="#8935D8"/>
<stop offset="1" stop-color="#9448F0"/>
</linearGradient>
<linearGradient id="paint6_linear_559_4480" x1="3455.23" y1="2550.79" x2="2980.68" y2="2019.24" gradientUnits="userSpaceOnUse">
<stop stop-color="#8E57F3"/>
<stop offset="1" stop-color="#AE86FF"/>
</linearGradient>
<linearGradient id="paint7_linear_559_4480" x1="15464" y1="16501.5" x2="13301.8" y2="7968.18" gradientUnits="userSpaceOnUse">
<stop stop-color="#8E57F3"/>
<stop offset="1" stop-color="#AE86FF"/>
</linearGradient>
</defs>
</svg>
